<svg width="746" height="321" viewBox="0 0 746 321" fill="none" xmlns="http://www.w3.org/2000/svg">
<g clip-path="url(#clip0_1_34)">
<path d="M0 10.2925C0 4.687 4.54416 0.142853 10.1497 0.142853H735.85C741.456 0.142853 746 4.68701 746 10.2925V309.993C746 315.599 741.456 320.143 735.85 320.143H10.1496C4.54414 320.143 0 315.599 0 309.993V10.2925Z" fill="#080416"/>
<g opacity="0.15">
<ellipse cx="243.906" cy="74.211" rx="216.906" ry="220.461" fill="url(#paint0_radial_1_34)"/>
<ellipse cx="441.416" cy="-14.3615" rx="285.113" ry="289.638" fill="url(#paint1_radial_1_34)"/>
<ellipse cx="418.141" cy="222.586" rx="362.048" ry="327.46" fill="url(#paint2_radial_1_34)"/>
</g>
<path d="M51.5941 -41.3016C-116.759 -41.3016 -253.319 95.2581 -253.319 263.611C-253.319 431.964 -116.759 568.524 51.5941 568.524C219.947 568.524 356.507 431.964 356.507 263.611C356.507 95.2581 219.947 -41.3016 51.5941 -41.3016ZM208.721 67.1916C229.287 67.1916 244.241 82.145 244.241 102.712C244.241 123.325 229.287 140.164 208.721 138.278C188.154 138.278 173.2 123.325 173.2 102.712C173.2 82.145 188.154 67.1916 208.721 67.1916ZM208.721 252.384C208.721 269.224 195.607 282.337 178.768 282.337C161.974 282.337 146.974 267.384 148.861 252.384C148.861 235.545 161.974 222.478 178.768 222.478C195.607 222.478 208.721 235.545 208.721 252.384ZM176.927 168.185C176.927 185.025 161.974 200.024 145.134 200.024C128.294 200.024 113.294 185.025 113.294 168.185C113.294 151.345 128.294 136.392 145.134 136.392C161.974 136.392 176.927 151.345 176.927 168.185ZM126.407 27.8985C145.134 27.8985 160.087 42.8519 160.087 61.5783C160.087 80.3046 145.134 95.2581 126.407 95.2581C107.727 95.2581 92.7276 80.3046 92.7276 61.5783C92.7276 42.8519 107.681 27.8985 126.407 27.8985ZM-178.505 175.685C-186.005 175.685 -193.459 168.231 -193.459 160.731C-193.459 153.232 -186.005 145.778 -178.505 145.778C-169.165 145.778 -163.552 153.232 -163.552 160.731C-163.552 168.231 -171.052 175.685 -178.505 175.685ZM-126.145 125.165C-135.485 125.165 -142.985 117.711 -142.985 108.371C-142.985 98.9849 -135.485 91.5312 -126.145 91.5312C-116.759 91.5312 -109.305 98.9849 -109.305 108.371C-109.305 117.711 -116.759 125.165 -126.145 125.165ZM-88.7384 190.638C-99.919 190.638 -109.305 181.298 -109.305 170.071C-109.305 158.845 -99.919 149.505 -88.7384 149.505C-77.5118 149.505 -68.1257 158.845 -68.1257 170.071C-68.1257 181.298 -77.5118 190.638 -88.7384 190.638ZM-86.852 50.3517C-86.852 39.1251 -79.3523 31.6253 -68.1257 31.6253C-56.899 31.6253 -49.4453 39.1251 -49.4453 50.3517C-49.4453 61.5783 -56.899 69.078 -68.1257 69.078C-79.3523 69.078 -86.852 61.5783 -86.852 50.3517ZM-55.0586 113.938C-55.0586 100.871 -43.832 89.6448 -30.719 89.6448C-17.652 89.6448 -6.42536 100.871 -6.42536 113.938C-6.42536 127.051 -17.652 138.278 -30.719 138.278C-43.832 138.278 -55.0586 127.051 -55.0586 113.938ZM2.96083 213.091C-13.8791 213.091 -25.1057 201.865 -25.1057 186.911C-25.1057 170.071 -13.8791 158.845 1.0744 158.845C16.0279 158.845 29.1409 170.071 29.1409 185.025C29.1409 201.865 17.9143 213.091 2.96083 213.091ZM4.80124 50.3517C4.80124 35.3982 16.0279 24.1716 30.9813 24.1716C45.9808 24.1716 57.2074 35.3982 57.2074 50.3517C57.2074 65.3051 45.9808 76.5317 30.9813 76.5317C16.0279 76.5317 4.80124 65.3051 4.80124 50.3517ZM32.8678 125.165C32.8678 108.371 45.9808 95.2581 62.8207 95.2581C79.6606 95.2581 92.7276 108.371 92.7276 125.165C92.7276 142.005 79.6606 155.118 62.8207 155.118C45.9808 155.118 32.8678 142.005 32.8678 125.165ZM55.321 228.091C55.321 213.091 68.434 200.024 83.3875 200.024C98.3409 200.024 111.454 213.091 111.454 228.091C111.454 243.044 98.3409 256.111 83.3875 256.111C68.434 256.111 55.321 243.044 55.321 228.091ZM92.7276 310.404C92.7276 295.404 105.841 284.178 120.794 284.178C135.748 284.178 146.974 297.291 146.974 312.244C146.974 327.198 133.907 338.424 118.908 338.424C103.954 338.424 90.8872 325.357 92.7276 310.404ZM113.294 402.057C113.294 390.831 122.681 381.444 133.907 381.444C145.134 381.444 154.474 390.831 154.474 402.057C154.474 413.284 145.134 422.624 133.907 422.624C122.681 422.624 113.294 413.284 113.294 402.057ZM143.247 508.664C135.748 508.664 128.294 501.21 128.294 493.71C128.294 486.211 135.748 478.757 143.247 478.757C152.588 478.757 158.201 484.37 158.201 493.71C158.201 501.21 150.747 508.664 143.247 508.664ZM195.653 458.19C188.154 458.19 180.654 450.69 180.654 443.191C178.814 433.851 186.267 426.351 195.653 424.51C196.896 423.222 198.138 423.222 199.38 424.51C208.721 426.351 216.22 433.851 214.334 443.191C212.447 452.531 204.994 460.031 195.653 458.19ZM189.994 368.377C176.927 368.377 167.541 357.151 167.541 344.038C167.541 330.971 178.768 321.631 191.881 321.631C203.107 321.631 214.334 330.971 214.334 345.924C214.334 359.037 203.107 368.377 189.994 368.377ZM208.721 186.911C208.721 168.231 223.674 153.232 242.4 153.232C261.127 153.232 276.08 168.231 276.08 186.911C276.08 205.638 261.127 220.591 242.4 220.591C223.674 220.591 208.721 205.638 208.721 186.911ZM253.627 402.057C242.4 402.057 234.901 394.557 234.901 383.331C234.901 372.104 242.4 364.651 253.627 364.651C262.967 364.651 272.307 372.104 272.307 383.331C272.307 394.557 264.854 402.057 253.627 402.057ZM253.627 308.518C238.673 308.518 227.447 297.291 227.447 282.337C227.447 267.384 238.673 256.157 253.627 256.157C268.58 256.157 279.807 267.384 279.807 282.337C279.807 297.291 268.58 308.518 253.627 308.518Z" fill="url(#paint3_linear_1_34)" fill-opacity="0.05"/>
<path d="M264.565 132.117C252.658 132.117 243 141.813 243 153.767C243 165.721 252.658 175.417 264.565 175.417C276.472 175.417 286.13 165.721 286.13 153.767C286.13 141.813 276.472 132.117 264.565 132.117ZM275.678 139.82C277.132 139.82 278.19 140.882 278.19 142.342C278.19 143.806 277.132 145.002 275.678 144.868C274.223 144.868 273.166 143.806 273.166 142.342C273.166 140.882 274.223 139.82 275.678 139.82ZM275.678 152.97C275.678 154.166 274.75 155.097 273.559 155.097C272.372 155.097 271.311 154.035 271.444 152.97C271.444 151.774 272.372 150.846 273.559 150.846C274.75 150.846 275.678 151.774 275.678 152.97ZM273.429 146.991C273.429 148.187 272.372 149.252 271.181 149.252C269.99 149.252 268.929 148.187 268.929 146.991C268.929 145.796 269.99 144.734 271.181 144.734C272.372 144.734 273.429 145.796 273.429 146.991ZM269.856 137.03C271.181 137.03 272.238 138.092 272.238 139.422C272.238 140.751 271.181 141.813 269.856 141.813C268.535 141.813 267.474 140.751 267.474 139.422C267.474 138.092 268.532 137.03 269.856 137.03ZM248.291 147.524C247.761 147.524 247.234 146.995 247.234 146.462C247.234 145.93 247.761 145.4 248.291 145.4C248.952 145.4 249.349 145.93 249.349 146.462C249.349 146.995 248.818 147.524 248.291 147.524ZM251.994 143.937C251.334 143.937 250.803 143.407 250.803 142.744C250.803 142.078 251.334 141.549 251.994 141.549C252.658 141.549 253.185 142.078 253.185 142.744C253.185 143.407 252.658 143.937 251.994 143.937ZM254.64 148.586C253.849 148.586 253.185 147.922 253.185 147.125C253.185 146.328 253.849 145.665 254.64 145.665C255.434 145.665 256.098 146.328 256.098 147.125C256.098 147.922 255.434 148.586 254.64 148.586ZM254.773 138.625C254.773 137.827 255.304 137.295 256.098 137.295C256.892 137.295 257.419 137.827 257.419 138.625C257.419 139.422 256.892 139.954 256.098 139.954C255.304 139.954 254.773 139.422 254.773 138.625ZM257.022 143.14C257.022 142.212 257.816 141.415 258.743 141.415C259.668 141.415 260.462 142.212 260.462 143.14C260.462 144.071 259.668 144.868 258.743 144.868C257.816 144.868 257.022 144.071 257.022 143.14ZM261.125 150.18C259.934 150.18 259.14 149.383 259.14 148.321C259.14 147.125 259.934 146.328 260.992 146.328C262.05 146.328 262.977 147.125 262.977 148.187C262.977 149.383 262.183 150.18 261.125 150.18ZM261.256 138.625C261.256 137.563 262.05 136.766 263.107 136.766C264.168 136.766 264.962 137.563 264.962 138.625C264.962 139.686 264.168 140.483 263.107 140.483C262.05 140.483 261.256 139.686 261.256 138.625ZM263.241 143.937C263.241 142.744 264.168 141.813 265.359 141.813C266.55 141.813 267.474 142.744 267.474 143.937C267.474 145.132 266.55 146.063 265.359 146.063C264.168 146.063 263.241 145.132 263.241 143.937ZM264.829 151.245C264.829 150.18 265.756 149.252 266.814 149.252C267.871 149.252 268.799 150.18 268.799 151.245C268.799 152.307 267.871 153.235 266.814 153.235C265.756 153.235 264.829 152.307 264.829 151.245ZM267.474 157.09C267.474 156.025 268.402 155.227 269.459 155.227C270.517 155.227 271.311 156.158 271.311 157.22C271.311 158.282 270.387 159.079 269.326 159.079C268.268 159.079 267.344 158.151 267.474 157.09ZM268.929 163.597C268.929 162.8 269.593 162.134 270.387 162.134C271.181 162.134 271.841 162.8 271.841 163.597C271.841 164.395 271.181 165.058 270.387 165.058C269.593 165.058 268.929 164.395 268.929 163.597ZM271.047 171.167C270.517 171.167 269.99 170.638 269.99 170.105C269.99 169.573 270.517 169.043 271.047 169.043C271.708 169.043 272.105 169.442 272.105 170.105C272.105 170.638 271.578 171.167 271.047 171.167ZM274.754 167.583C274.223 167.583 273.693 167.051 273.693 166.518C273.563 165.855 274.09 165.322 274.754 165.192C274.841 165.1 274.929 165.1 275.017 165.192C275.678 165.322 276.208 165.855 276.075 166.518C275.941 167.181 275.414 167.714 274.754 167.583ZM274.353 161.206C273.429 161.206 272.765 160.409 272.765 159.478C272.765 158.55 273.559 157.887 274.487 157.887C275.281 157.887 276.075 158.55 276.075 159.612C276.075 160.543 275.281 161.206 274.353 161.206ZM275.678 148.321C275.678 146.995 276.735 145.93 278.06 145.93C279.384 145.93 280.442 146.995 280.442 148.321C280.442 149.651 279.384 150.712 278.06 150.712C276.735 150.712 275.678 149.651 275.678 148.321ZM278.854 163.597C278.06 163.597 277.529 163.065 277.529 162.268C277.529 161.471 278.06 160.941 278.854 160.941C279.514 160.941 280.175 161.471 280.175 162.268C280.175 163.065 279.648 163.597 278.854 163.597ZM278.854 156.956C277.796 156.956 277.002 156.158 277.002 155.097C277.002 154.035 277.796 153.238 278.854 153.238C279.911 153.238 280.705 154.035 280.705 155.097C280.705 156.158 279.911 156.956 278.854 156.956Z" fill="#2DCCD3"/>
<path d="M303.112 161.743H314.176V165.951H297.905V140.547H303.112V161.743Z" fill="white"/>
<path d="M321.03 165.951H315.992V147.081H321.03V165.951ZM315.706 142.194C315.706 141.436 315.957 140.815 316.461 140.325C316.962 139.838 317.649 139.593 318.518 139.593C319.377 139.593 320.057 139.838 320.561 140.325C321.072 140.815 321.329 141.436 321.329 142.194C321.329 142.961 321.069 143.589 320.548 144.075C320.034 144.565 319.354 144.807 318.505 144.807C317.662 144.807 316.985 144.565 316.474 144.075C315.96 143.589 315.706 142.961 315.706 142.194Z" fill="white"/>
<path d="M334.958 165.951C334.73 165.5 334.561 164.938 334.451 164.265C333.234 165.624 331.655 166.304 329.713 166.304C327.871 166.304 326.345 165.768 325.131 164.696C323.924 163.625 323.322 162.276 323.322 160.645C323.322 158.653 324.057 157.117 325.534 156.046C327.008 154.974 329.143 154.435 331.938 154.425H334.242V153.34C334.242 152.471 334.021 151.772 333.579 151.25C333.136 150.727 332.433 150.466 331.47 150.466C330.617 150.466 329.953 150.671 329.478 151.08C329 151.482 328.762 152.034 328.762 152.739H323.738C323.738 151.651 324.07 150.642 324.74 149.708C325.417 148.776 326.367 148.048 327.591 147.525C328.821 146.996 330.201 146.728 331.73 146.728C334.047 146.728 335.886 147.313 337.249 148.479C338.609 149.649 339.293 151.289 339.293 153.406V161.586C339.299 163.383 339.547 164.736 340.035 165.65V165.951H334.958ZM330.806 162.449C331.551 162.449 332.238 162.285 332.863 161.952C333.487 161.622 333.946 161.178 334.242 160.619V157.365H332.368C329.859 157.365 328.522 158.238 328.359 159.979L328.346 160.28C328.346 160.907 328.561 161.426 328.997 161.835C329.439 162.246 330.041 162.449 330.806 162.449Z" fill="white"/>
<path d="M347.335 165.951H342.298V147.081H347.335V165.951ZM342.012 142.194C342.012 141.436 342.262 140.815 342.766 140.325C343.268 139.838 343.954 139.593 344.823 139.593C345.682 139.593 346.362 139.838 346.867 140.325C347.378 140.815 347.635 141.436 347.635 142.194C347.635 142.961 347.374 143.589 346.854 144.075C346.339 144.565 345.659 144.807 344.81 144.807C343.967 144.807 343.29 144.565 342.779 144.075C342.265 143.589 342.012 142.961 342.012 142.194Z" fill="white"/>
<path d="M360.548 160.737C360.548 160.119 360.242 159.636 359.637 159.286C359.028 158.93 358.052 158.613 356.708 158.332C352.237 157.385 350.004 155.477 350.004 152.609C350.004 150.936 350.694 149.538 352.074 148.414C353.46 147.29 355.276 146.728 357.515 146.728C359.9 146.728 361.81 147.297 363.242 148.427C364.674 149.551 365.39 151.014 365.39 152.818H360.365C360.365 152.096 360.131 151.498 359.663 151.027C359.201 150.557 358.481 150.322 357.502 150.322C356.649 150.322 355.992 150.515 355.523 150.897C355.061 151.282 354.834 151.769 354.834 152.36C354.834 152.919 355.097 153.373 355.628 153.719C356.155 154.059 357.046 154.357 358.296 154.608C359.545 154.853 360.6 155.131 361.459 155.444C364.114 156.421 365.442 158.117 365.442 160.528C365.442 162.246 364.703 163.638 363.229 164.71C361.761 165.775 359.861 166.304 357.528 166.304C355.956 166.304 354.56 166.02 353.337 165.454C352.113 164.889 351.153 164.118 350.46 163.141C349.764 162.158 349.419 161.096 349.419 159.953H354.183C354.225 160.851 354.55 161.541 355.159 162.018C355.774 162.488 356.597 162.723 357.632 162.723C358.595 162.723 359.318 162.54 359.806 162.174C360.3 161.808 360.548 161.332 360.548 160.737Z" fill="white"/>
<path d="M366.78 156.333C366.78 154.471 367.138 152.805 367.861 151.341C368.58 149.871 369.611 148.734 370.959 147.93C372.312 147.13 373.878 146.728 375.658 146.728C378.199 146.728 380.269 147.509 381.866 149.067C383.471 150.629 384.369 152.746 384.561 155.418L384.587 156.699C384.587 159.6 383.78 161.926 382.166 163.677C380.558 165.428 378.404 166.304 375.697 166.304C372.989 166.304 370.822 165.435 369.201 163.69C367.587 161.939 366.78 159.567 366.78 156.568V156.333ZM371.805 156.699C371.805 158.496 372.137 159.868 372.807 160.815C373.484 161.766 374.447 162.24 375.697 162.24C376.91 162.24 377.861 161.776 378.547 160.841C379.231 159.901 379.575 158.398 379.575 156.333C379.575 154.582 379.231 153.223 378.547 152.256C377.861 151.289 376.897 150.805 375.658 150.805C374.434 150.805 373.484 151.289 372.807 152.256C372.137 153.216 371.805 154.696 371.805 156.699Z" fill="white"/>
<path d="M391.199 147.081L391.355 149.25C392.699 147.571 394.499 146.728 396.757 146.728C398.752 146.728 400.236 147.316 401.209 148.492C402.178 149.668 402.679 151.426 402.705 153.759V165.951H397.681V153.876C397.681 152.805 397.447 152.03 396.978 151.55C396.516 151.073 395.748 150.831 394.674 150.831C393.259 150.831 392.201 151.433 391.498 152.635V165.951H386.474V147.081H391.199Z" fill="white"/>
<path d="M428.146 159.325H417.551L415.169 165.951H411.719L421.391 140.547H424.306L433.977 165.951H430.554L428.146 159.325ZM418.553 156.568H427.157L422.848 144.689L418.553 156.568Z" fill="white"/>
<path d="M446.728 160.946C446.728 160.077 446.396 159.401 445.739 158.92C445.088 158.434 443.946 158.016 442.316 157.666C440.692 157.32 439.403 156.901 438.45 156.411C437.493 155.925 436.787 155.346 436.328 154.673C435.866 153.994 435.638 153.19 435.638 152.256C435.638 150.714 436.289 149.407 437.591 148.335C438.899 147.264 440.565 146.728 442.589 146.728C444.724 146.728 446.455 147.283 447.782 148.388C449.11 149.495 449.774 150.907 449.774 152.622H446.533C446.533 151.743 446.159 150.985 445.413 150.348C444.665 149.704 443.725 149.381 442.589 149.381C441.417 149.381 440.5 149.639 439.842 150.152C439.182 150.658 438.853 151.325 438.853 152.151C438.853 152.929 439.159 153.517 439.777 153.915C440.392 154.307 441.499 154.686 443.097 155.052C444.701 155.412 446.002 155.843 447.001 156.346C447.997 156.843 448.736 157.444 449.214 158.149C449.699 158.849 449.943 159.705 449.943 160.724C449.943 162.406 449.27 163.756 447.926 164.775C446.578 165.794 444.834 166.304 442.693 166.304C441.19 166.304 439.859 166.036 438.697 165.507C437.542 164.968 436.634 164.22 435.977 163.259C435.326 162.302 435 161.26 435 160.136H438.215C438.267 161.227 438.697 162.089 439.504 162.723C440.311 163.35 441.372 163.664 442.693 163.664C443.907 163.664 444.883 163.422 445.622 162.932C446.357 162.436 446.728 161.776 446.728 160.946Z" fill="white"/>
<path d="M463.973 160.946C463.973 160.077 463.641 159.401 462.983 158.92C462.333 158.434 461.19 158.016 459.56 157.666C457.936 157.32 456.648 156.901 455.694 156.411C454.737 155.925 454.031 155.346 453.572 154.673C453.11 153.994 452.883 153.19 452.883 152.256C452.883 150.714 453.533 149.407 454.835 148.335C456.143 147.264 457.809 146.728 459.833 146.728C461.968 146.728 463.699 147.283 465.027 148.388C466.355 149.495 467.018 150.907 467.018 152.622H463.777C463.777 151.743 463.403 150.985 462.658 150.348C461.91 149.704 460.969 149.381 459.833 149.381C458.662 149.381 457.744 149.639 457.087 150.152C456.426 150.658 456.098 151.325 456.098 152.151C456.098 152.929 456.404 153.517 457.022 153.915C457.637 154.307 458.743 154.686 460.341 155.052C461.945 155.412 463.247 155.843 464.246 156.346C465.242 156.843 465.98 157.444 466.459 158.149C466.944 158.849 467.188 159.705 467.188 160.724C467.188 162.406 466.514 163.756 465.17 164.775C463.823 165.794 462.079 166.304 459.938 166.304C458.434 166.304 457.103 166.036 455.941 165.507C454.786 164.968 453.878 164.22 453.221 163.259C452.57 162.302 452.245 161.26 452.245 160.136H455.46C455.512 161.227 455.941 162.089 456.748 162.723C457.556 163.35 458.616 163.664 459.938 163.664C461.151 163.664 462.128 163.422 462.866 162.932C463.602 162.436 463.973 161.776 463.973 160.946Z" fill="white"/>
<path d="M473.759 165.951H470.544V147.081H473.759V165.951ZM470.283 142.063C470.283 141.54 470.443 141.102 470.765 140.743C471.084 140.387 471.559 140.207 472.184 140.207C472.809 140.207 473.28 140.387 473.603 140.743C473.931 141.102 474.097 141.547 474.097 142.076C474.097 142.599 473.931 143.036 473.603 143.383C473.28 143.732 472.809 143.905 472.184 143.905C471.559 143.905 471.084 143.732 470.765 143.383C470.443 143.036 470.283 142.595 470.283 142.063Z" fill="white"/>
<path d="M488.749 160.946C488.749 160.077 488.417 159.401 487.76 158.92C487.109 158.434 485.967 158.016 484.337 157.666C482.713 157.32 481.424 156.901 480.471 156.411C479.514 155.925 478.808 155.346 478.349 154.673C477.887 153.994 477.659 153.19 477.659 152.256C477.659 150.714 478.31 149.407 479.612 148.335C480.92 147.264 482.586 146.728 484.61 146.728C486.745 146.728 488.476 147.283 489.803 148.388C491.131 149.495 491.795 150.907 491.795 152.622H488.554C488.554 151.743 488.18 150.985 487.434 150.348C486.686 149.704 485.746 149.381 484.61 149.381C483.438 149.381 482.521 149.639 481.863 150.152C481.203 150.658 480.874 151.325 480.874 152.151C480.874 152.929 481.18 153.517 481.798 153.915C482.413 154.307 483.52 154.686 485.117 155.052C486.722 155.412 488.023 155.843 489.022 156.346C490.018 156.843 490.757 157.444 491.235 158.149C491.72 158.849 491.964 159.705 491.964 160.724C491.964 162.406 491.291 163.756 489.947 164.775C488.599 165.794 486.855 166.304 484.714 166.304C483.211 166.304 481.88 166.036 480.718 165.507C479.563 164.968 478.655 164.22 477.997 163.259C477.347 162.302 477.021 161.26 477.021 160.136H480.236C480.288 161.227 480.718 162.089 481.525 162.723C482.332 163.35 483.393 163.664 484.714 163.664C485.928 163.664 486.904 163.422 487.643 162.932C488.378 162.436 488.749 161.776 488.749 160.946Z" fill="white"/>
<path d="M499.407 142.507V147.081H502.922V149.564H499.407V161.272C499.407 162.03 499.564 162.602 499.876 162.984C500.188 163.36 500.722 163.546 501.477 163.546C501.848 163.546 502.356 163.478 503 163.337V165.951C502.157 166.186 501.337 166.304 500.54 166.304C499.098 166.304 498.015 165.869 497.286 164.997C496.557 164.118 496.192 162.877 496.192 161.272V149.564H492.769V147.081H496.192V142.507H499.407Z" fill="white"/>
<path d="M349.353 192.73L348.741 190.99H344.949L344.337 192.73H342.837L346.017 184.078H347.757L350.925 192.73H349.353ZM345.381 189.754H348.309L346.845 185.59L345.381 189.754ZM356.385 184.078C358.089 184.078 359.337 184.87 359.337 186.85C359.337 188.842 358.089 189.634 356.385 189.634H354.045V192.73H352.581V184.078H356.385ZM356.397 188.398C357.297 188.398 357.885 187.978 357.885 186.85C357.885 185.722 357.297 185.314 356.397 185.314H354.045V188.398H356.397ZM361.42 184.078H362.884V192.73H361.42V184.078ZM371.487 184.078H372.939V190.258C372.939 192.082 371.871 192.826 370.347 192.826C368.823 192.826 367.755 192.07 367.755 190.258H369.207C369.207 191.29 369.663 191.614 370.347 191.614C371.031 191.614 371.487 191.29 371.487 190.258V184.078ZM380.403 190.306C380.403 189.502 379.911 189.262 378.975 189.094L377.523 188.842C375.831 188.542 375.075 187.93 375.075 186.478C375.075 185.086 376.155 183.958 378.279 183.958C380.055 183.958 381.219 184.762 381.603 186.322L380.271 186.586C380.031 185.626 379.335 185.158 378.279 185.158C377.091 185.158 376.491 185.638 376.491 186.418C376.491 187.186 376.935 187.39 377.859 187.558L379.215 187.798C380.739 188.062 381.831 188.506 381.831 190.258C381.831 191.986 380.487 192.85 378.459 192.85C376.371 192.85 375.255 192.094 374.895 190.21L376.251 189.934C376.479 191.134 377.139 191.614 378.459 191.614C379.695 191.614 380.403 191.146 380.403 190.306ZM387.909 188.398C387.909 190.75 388.977 191.614 390.273 191.614C391.353 191.614 392.205 191.062 392.517 189.67L393.885 189.97C393.465 191.938 392.085 192.85 390.273 192.85C388.089 192.85 386.457 191.434 386.457 188.398C386.457 185.374 388.101 183.958 390.273 183.958C392.085 183.958 393.465 184.87 393.885 186.838L392.517 187.138C392.205 185.746 391.353 185.194 390.273 185.194C388.965 185.194 387.909 186.058 387.909 188.398ZM397.398 191.494H401.97V192.73H395.934V184.078H397.398V191.494ZM403.999 184.078H405.463V192.73H403.999V184.078ZM409.227 191.494H414.123V192.73H407.763V184.078H413.883V185.314H409.227V187.666H413.427V188.914H409.227V191.494ZM421.855 184.078H423.295V192.73H422.035L417.655 186.766V192.73H416.203V184.078H417.487L421.855 190.042V184.078ZM432.191 184.078V185.362H429.287V192.73H427.835V185.362H424.943V184.078H432.191Z" fill="#2DCCD3"/>
</g>
<path d="M10.1497 0.354304H735.85C741.339 0.354304 745.789 4.80379 745.789 10.2925V309.993C745.789 315.482 741.339 319.931 735.85 319.931H10.1496C4.66092 319.931 0.211451 315.482 0.211451 309.993V10.2925C0.211451 4.80378 4.66094 0.354304 10.1497 0.354304Z" stroke="#312B55" stroke-width="0.422902"/>
<defs>
<radialGradient id="paint0_radial_1_34" cx="0" cy="0" r="1" gradientUnits="userSpaceOnUse" gradientTransform="translate(243.906 74.211) rotate(90) scale(220.461 216.906)">
<stop stop-color="#00FFD1"/>
<stop offset="1" stop-color="#D9D9D9" stop-opacity="0"/>
</radialGradient>
<radialGradient id="paint1_radial_1_34" cx="0" cy="0" r="1" gradientUnits="userSpaceOnUse" gradientTransform="translate(441.416 -14.3615) rotate(90) scale(289.638 285.113)">
<stop stop-color="#001AFF"/>
<stop offset="1" stop-color="#D9D9D9" stop-opacity="0"/>
</radialGradient>
<radialGradient id="paint2_radial_1_34" cx="0" cy="0" r="1" gradientUnits="userSpaceOnUse" gradientTransform="translate(418.141 222.586) rotate(90) scale(327.46 362.048)">
<stop stop-color="#00FFC2"/>
<stop offset="1" stop-color="#D9D9D9" stop-opacity="0"/>
</radialGradient>
<linearGradient id="paint3_linear_1_34" x1="51.5941" y1="-41.3016" x2="51.5941" y2="411.055" gradientUnits="userSpaceOnUse">
<stop stop-color="#2DCCD3"/>
<stop offset="1" stop-color="#17696D"/>
</linearGradient>
<clipPath id="clip0_1_34">
<path d="M0 10.2925C0 4.687 4.54416 0.142853 10.1497 0.142853H735.85C741.456 0.142853 746 4.68701 746 10.2925V309.993C746 315.599 741.456 320.143 735.85 320.143H10.1496C4.54414 320.143 0 315.599 0 309.993V10.2925Z" fill="white"/>
</clipPath>
</defs>
</svg>
