<svg width="1492" height="640" viewBox="0 0 1492 640" fill="none" xmlns="http://www.w3.org/2000/svg">
<g clip-path="url(#clip0_1_34)">
<path d="M0 20.2993C0 9.0883 9.08832 0 20.2993 0H1471.7C1482.91 0 1492 9.08832 1492 20.2993V619.701C1492 630.912 1482.91 640 1471.7 640H20.2993C9.08828 640 0 630.912 0 619.701V20.2993Z" fill="#080416"/>
<g opacity="0.15">
<ellipse cx="487.811" cy="148.136" rx="433.811" ry="440.923" fill="url(#paint0_radial_1_34)"/>
<ellipse cx="882.831" cy="-29.0088" rx="570.226" ry="579.277" fill="url(#paint1_radial_1_34)"/>
<ellipse cx="836.282" cy="444.886" rx="724.096" ry="654.919" fill="url(#paint2_radial_1_34)"/>
</g>
<path d="M103.188 -82.8889C-233.518 -82.8889 -506.637 190.23 -506.637 526.936C-506.637 863.643 -233.518 1136.76 103.188 1136.76C439.894 1136.76 713.014 863.643 713.014 526.936C713.014 190.23 439.894 -82.8889 103.188 -82.8889ZM417.441 134.097C458.575 134.097 488.482 164.004 488.482 205.138C488.482 246.363 458.575 280.043 417.441 276.27C376.307 276.27 346.401 246.363 346.401 205.138C346.401 164.004 376.307 134.097 417.441 134.097ZM417.441 504.483C417.441 538.163 391.215 564.389 357.535 564.389C323.947 564.389 293.948 534.482 297.721 504.483C297.721 470.803 323.947 444.669 357.535 444.669C391.215 444.669 417.441 470.803 417.441 504.483ZM353.854 336.084C353.854 369.764 323.947 399.763 290.268 399.763C256.588 399.763 226.589 369.764 226.589 336.084C226.589 302.404 256.588 272.498 290.268 272.498C323.947 272.498 353.854 302.404 353.854 336.084ZM252.815 55.5112C290.268 55.5112 320.174 85.4181 320.174 122.871C320.174 160.323 290.268 190.23 252.815 190.23C215.454 190.23 185.455 160.323 185.455 122.871C185.455 85.4181 215.362 55.5112 252.815 55.5112ZM-357.01 351.084C-372.01 351.084 -386.917 336.176 -386.917 321.177C-386.917 306.177 -372.01 291.27 -357.01 291.27C-338.33 291.27 -327.104 306.177 -327.104 321.177C-327.104 336.176 -342.103 351.084 -357.01 351.084ZM-252.29 250.044C-270.971 250.044 -285.97 235.137 -285.97 216.457C-285.97 197.684 -270.971 182.777 -252.29 182.777C-233.518 182.777 -218.61 197.684 -218.61 216.457C-218.61 235.137 -233.518 250.044 -252.29 250.044ZM-177.477 380.991C-199.838 380.991 -218.61 362.31 -218.61 339.857C-218.61 317.404 -199.838 298.724 -177.477 298.724C-155.024 298.724 -136.251 317.404 -136.251 339.857C-136.251 362.31 -155.024 380.991 -177.477 380.991ZM-173.704 100.418C-173.704 77.9644 -158.705 62.9649 -136.251 62.9649C-113.798 62.9649 -98.8907 77.9644 -98.8907 100.418C-98.8907 122.871 -113.798 137.87 -136.251 137.87C-158.705 137.87 -173.704 122.871 -173.704 100.418ZM-110.117 227.591C-110.117 201.457 -87.6641 179.004 -61.438 179.004C-35.3039 179.004 -12.8508 201.457 -12.8508 227.591C-12.8508 253.817 -35.3039 276.27 -61.438 276.27C-87.6641 276.27 -110.117 253.817 -110.117 227.591ZM5.92163 425.897C-27.7582 425.897 -50.2114 403.444 -50.2114 373.537C-50.2114 339.857 -27.7582 317.404 2.14877 317.404C32.0557 317.404 58.2817 339.857 58.2817 369.764C58.2817 403.444 35.8286 425.897 5.92163 425.897ZM9.60246 100.418C9.60246 70.5107 32.0557 48.0575 61.9626 48.0575C91.9616 48.0575 114.415 70.5107 114.415 100.418C114.415 130.325 91.9616 152.778 61.9626 152.778C32.0557 152.778 9.60246 130.325 9.60246 100.418ZM65.7355 250.044C65.7355 216.456 91.9616 190.23 125.641 190.23C159.321 190.23 185.455 216.456 185.455 250.044C185.455 283.724 159.321 309.95 125.641 309.95C91.9616 309.95 65.7355 283.724 65.7355 250.044ZM110.642 455.896C110.642 425.897 136.868 399.763 166.775 399.763C196.682 399.763 222.908 425.897 222.908 455.896C222.908 485.803 196.682 511.937 166.775 511.937C136.868 511.937 110.642 485.803 110.642 455.896ZM185.455 620.522C185.455 590.523 211.681 568.07 241.588 568.07C271.495 568.07 293.948 594.296 293.948 624.203C293.948 654.11 267.814 676.563 237.815 676.563C207.908 676.563 181.774 650.429 185.455 620.522ZM226.589 803.829C226.589 781.375 245.361 762.603 267.814 762.603C290.268 762.603 308.948 781.375 308.948 803.829C308.948 826.282 290.268 844.962 267.814 844.962C245.361 844.962 226.589 826.282 226.589 803.829ZM286.495 1017.04C271.495 1017.04 256.588 1002.13 256.588 987.135C256.588 972.136 271.495 957.228 286.495 957.228C305.175 957.228 316.402 968.455 316.402 987.135C316.402 1002.13 301.494 1017.04 286.495 1017.04ZM391.307 916.095C376.307 916.095 361.308 901.095 361.308 886.096C357.627 867.415 372.535 852.416 391.307 848.735C393.791 846.158 396.276 846.158 398.761 848.735C417.441 852.416 432.441 867.415 428.668 886.096C424.895 904.776 409.987 919.776 391.307 916.095ZM379.988 736.469C353.854 736.469 335.082 714.016 335.082 687.79C335.082 661.656 357.535 642.975 383.761 642.975C406.214 642.975 428.668 661.656 428.668 691.563C428.668 717.789 406.214 736.469 379.988 736.469ZM417.441 373.537C417.441 336.176 447.348 306.177 484.801 306.177C522.253 306.177 552.16 336.176 552.16 373.537C552.16 410.99 522.253 440.897 484.801 440.897C447.348 440.897 417.441 410.99 417.441 373.537ZM507.254 803.829C484.801 803.829 469.801 788.829 469.801 766.376C469.801 743.923 484.801 729.015 507.254 729.015C525.934 729.015 544.614 743.923 544.614 766.376C544.614 788.829 529.707 803.829 507.254 803.829ZM507.254 616.749C477.347 616.749 454.894 594.296 454.894 564.389C454.894 534.482 477.347 512.029 507.254 512.029C537.161 512.029 559.614 534.482 559.614 564.389C559.614 594.296 537.161 616.749 507.254 616.749Z" fill="url(#paint3_linear_1_34)" fill-opacity="0.05"/>
<path d="M530.798 263.948C507.168 263.948 488 283.341 488 307.248C488 331.156 507.168 350.549 530.798 350.549C554.428 350.549 573.596 331.156 573.596 307.248C573.596 283.341 554.428 263.948 530.798 263.948ZM552.853 279.355C555.739 279.355 557.838 281.478 557.838 284.399C557.838 287.326 555.739 289.718 552.853 289.45C549.966 289.45 547.867 287.326 547.867 284.399C547.867 281.478 549.966 279.355 552.853 279.355ZM552.853 305.654C552.853 308.046 551.012 309.908 548.648 309.908C546.291 309.908 544.186 307.784 544.451 305.654C544.451 303.263 546.291 301.407 548.648 301.407C551.012 301.407 552.853 303.263 552.853 305.654ZM548.39 293.697C548.39 296.088 546.291 298.218 543.928 298.218C541.564 298.218 539.459 296.088 539.459 293.697C539.459 291.306 541.564 289.182 543.928 289.182C546.291 289.182 548.39 291.306 548.39 293.697ZM541.299 273.775C543.928 273.775 546.026 275.898 546.026 278.558C546.026 281.217 543.928 283.341 541.299 283.341C538.677 283.341 536.572 281.217 536.572 278.558C536.572 275.898 538.671 273.775 541.299 273.775ZM498.501 294.762C497.448 294.762 496.402 293.703 496.402 292.638C496.402 291.573 497.448 290.515 498.501 290.515C499.812 290.515 500.6 291.573 500.6 292.638C500.6 293.703 499.547 294.762 498.501 294.762ZM505.85 287.588C504.539 287.588 503.487 286.529 503.487 285.203C503.487 283.87 504.539 282.811 505.85 282.811C507.168 282.811 508.214 283.87 508.214 285.203C508.214 286.529 507.168 287.588 505.85 287.588ZM511.101 296.886C509.531 296.886 508.214 295.559 508.214 293.965C508.214 292.371 509.531 291.044 511.101 291.044C512.677 291.044 513.994 292.371 513.994 293.965C513.994 295.559 512.677 296.886 511.101 296.886ZM511.366 276.963C511.366 275.369 512.418 274.304 513.994 274.304C515.57 274.304 516.616 275.369 516.616 276.963C516.616 278.558 515.57 279.623 513.994 279.623C512.418 279.623 511.366 278.558 511.366 276.963ZM515.828 285.993C515.828 284.138 517.404 282.543 519.245 282.543C521.079 282.543 522.654 284.138 522.654 285.993C522.654 287.856 521.079 289.45 519.245 289.45C517.404 289.45 515.828 287.856 515.828 285.993ZM523.972 300.074C521.608 300.074 520.032 298.48 520.032 296.356C520.032 293.965 521.608 292.371 523.707 292.371C525.806 292.371 527.647 293.965 527.647 296.088C527.647 298.48 526.071 300.074 523.972 300.074ZM524.23 276.963C524.23 274.84 525.806 273.246 527.905 273.246C530.01 273.246 531.586 274.84 531.586 276.963C531.586 279.087 530.01 280.681 527.905 280.681C525.806 280.681 524.23 279.087 524.23 276.963ZM528.17 287.588C528.17 285.203 530.01 283.341 532.374 283.341C534.738 283.341 536.572 285.203 536.572 287.588C536.572 289.979 534.738 291.841 532.374 291.841C530.01 291.841 528.17 289.979 528.17 287.588ZM531.321 302.204C531.321 300.074 533.162 298.218 535.261 298.218C537.36 298.218 539.2 300.074 539.2 302.204C539.2 304.328 537.36 306.183 535.261 306.183C533.162 306.183 531.321 304.328 531.321 302.204ZM536.572 313.893C536.572 311.763 538.412 310.169 540.511 310.169C542.61 310.169 544.186 312.031 544.186 314.155C544.186 316.278 542.352 317.873 540.246 317.873C538.148 317.873 536.313 316.017 536.572 313.893ZM539.459 326.909C539.459 325.315 540.776 323.982 542.352 323.982C543.928 323.982 545.239 325.315 545.239 326.909C545.239 328.503 543.928 329.83 542.352 329.83C540.776 329.83 539.459 328.503 539.459 326.909ZM543.663 342.048C542.61 342.048 541.564 340.99 541.564 339.925C541.564 338.86 542.61 337.801 543.663 337.801C544.974 337.801 545.762 338.598 545.762 339.925C545.762 340.99 544.715 342.048 543.663 342.048ZM551.019 334.88C549.966 334.88 548.913 333.815 548.913 332.75C548.655 331.424 549.701 330.359 551.019 330.098C551.193 329.915 551.367 329.915 551.542 330.098C552.853 330.359 553.905 331.424 553.641 332.75C553.376 334.077 552.33 335.142 551.019 334.88ZM550.224 322.126C548.39 322.126 547.073 320.532 547.073 318.67C547.073 316.814 548.648 315.488 550.489 315.488C552.065 315.488 553.641 316.814 553.641 318.938C553.641 320.8 552.065 322.126 550.224 322.126ZM552.853 296.356C552.853 293.703 554.952 291.573 557.58 291.573C560.209 291.573 562.307 293.703 562.307 296.356C562.307 299.016 560.209 301.139 557.58 301.139C554.952 301.139 552.853 299.016 552.853 296.356ZM559.156 326.909C557.58 326.909 556.527 325.844 556.527 324.25C556.527 322.655 557.58 321.597 559.156 321.597C560.467 321.597 561.778 322.655 561.778 324.25C561.778 325.844 560.732 326.909 559.156 326.909ZM559.156 313.626C557.057 313.626 555.481 312.031 555.481 309.908C555.481 307.784 557.057 306.19 559.156 306.19C561.255 306.19 562.831 307.784 562.831 309.908C562.831 312.031 561.255 313.626 559.156 313.626Z" fill="#2DCCD3"/>
<path d="M607.299 323.2H629.256V331.616H596.966V280.808H607.299V323.2Z" fill="white"/>
<path d="M642.859 331.616H632.862V293.876H642.859V331.616ZM632.294 284.101C632.294 282.585 632.791 281.344 633.792 280.364C634.786 279.39 636.149 278.9 637.873 278.9C639.578 278.9 640.928 279.39 641.929 280.364C642.943 281.344 643.453 282.585 643.453 284.101C643.453 285.637 642.937 286.891 641.903 287.865C640.883 288.845 639.533 289.329 637.848 289.329C636.175 289.329 634.832 288.845 633.818 287.865C632.797 286.891 632.294 285.637 632.294 284.101Z" fill="white"/>
<path d="M670.502 331.616C670.05 330.715 669.714 329.591 669.494 328.245C667.079 330.963 663.947 332.322 660.091 332.322C656.436 332.322 653.407 331.25 650.998 329.107C648.602 326.964 647.408 324.266 647.408 321.005C647.408 317.019 648.867 313.948 651.799 311.805C654.725 309.662 658.961 308.584 664.509 308.565H669.081V306.395C669.081 304.657 668.642 303.259 667.764 302.214C666.885 301.168 665.49 300.645 663.579 300.645C661.887 300.645 660.569 301.057 659.626 301.874C658.677 302.677 658.206 303.782 658.206 305.193H648.234C648.234 303.017 648.893 300.998 650.223 299.129C651.567 297.267 653.452 295.81 655.881 294.765C658.322 293.706 661.06 293.17 664.095 293.17C668.694 293.17 672.342 294.34 675.048 296.673C677.748 299.012 679.104 302.292 679.104 306.526V322.887C679.117 326.481 679.608 329.186 680.577 331.015V331.616H670.502ZM662.261 324.612C663.74 324.612 665.103 324.285 666.343 323.619C667.583 322.959 668.493 322.07 669.081 320.953V314.445H665.361C660.382 314.445 657.728 316.19 657.405 319.672L657.379 320.273C657.379 321.528 657.805 322.567 658.671 323.384C659.549 324.207 660.744 324.612 662.261 324.612Z" fill="white"/>
<path d="M695.065 331.616H685.068V293.876H695.065V331.616ZM684.5 284.101C684.5 282.585 684.997 281.344 685.998 280.364C686.993 279.39 688.355 278.9 690.08 278.9C691.785 278.9 693.134 279.39 694.135 280.364C695.149 281.344 695.66 282.585 695.66 284.101C695.66 285.637 695.143 286.891 694.11 287.865C693.089 288.845 691.739 289.329 690.054 289.329C688.381 289.329 687.038 288.845 686.024 287.865C685.004 286.891 684.5 285.637 684.5 284.101Z" fill="white"/>
<path d="M721.287 321.188C721.287 319.953 720.68 318.986 719.479 318.287C718.271 317.575 716.334 316.941 713.666 316.379C704.793 314.484 700.363 310.668 700.363 304.932C700.363 301.586 701.732 298.79 704.47 296.542C707.221 294.294 710.825 293.17 715.268 293.17C720.002 293.17 723.793 294.307 726.634 296.568C729.476 298.816 730.897 301.743 730.897 305.35H720.925C720.925 303.906 720.46 302.71 719.53 301.769C718.613 300.828 717.186 300.358 715.242 300.358C713.55 300.358 712.246 300.743 711.316 301.508C710.399 302.279 709.947 303.252 709.947 304.435C709.947 305.552 710.47 306.461 711.522 307.153C712.569 307.833 714.338 308.427 716.818 308.93C719.298 309.42 721.39 309.976 723.095 310.603C728.365 312.557 731 315.948 731 320.77C731 324.207 729.534 326.99 726.609 329.133C723.696 331.263 719.924 332.322 715.294 332.322C712.175 332.322 709.404 331.754 706.976 330.623C704.548 329.493 702.642 327.951 701.267 325.997C699.885 324.03 699.2 321.907 699.2 319.62H708.655C708.739 321.417 709.385 322.795 710.592 323.749C711.813 324.69 713.447 325.161 715.501 325.161C717.412 325.161 718.846 324.795 719.815 324.063C720.796 323.331 721.287 322.377 721.287 321.188Z" fill="white"/>
<path d="M733.656 312.38C733.656 308.656 734.367 305.324 735.801 302.396C737.228 299.456 739.275 297.182 741.949 295.575C744.635 293.974 747.742 293.17 751.274 293.17C756.318 293.17 760.425 294.732 763.596 297.849C766.78 300.972 768.563 305.206 768.944 310.551L768.995 313.112C768.995 318.914 767.394 323.566 764.191 327.069C761 330.571 756.725 332.322 751.352 332.322C745.979 332.322 741.677 330.584 738.461 327.095C735.258 323.593 733.656 318.849 733.656 312.851V312.38ZM743.628 313.112C743.628 316.706 744.287 319.45 745.617 321.345C746.96 323.246 748.872 324.194 751.352 324.194C753.761 324.194 755.646 323.266 757.009 321.397C758.365 319.515 759.05 316.51 759.05 312.38C759.05 308.878 758.365 306.16 757.009 304.226C755.646 302.292 753.735 301.325 751.274 301.325C748.846 301.325 746.96 302.292 745.617 304.226C744.287 306.147 743.628 309.107 743.628 313.112Z" fill="white"/>
<path d="M782.118 293.876L782.428 298.215C785.095 294.856 788.667 293.17 793.149 293.17C797.107 293.17 800.052 294.347 801.983 296.699C803.908 299.051 804.902 302.566 804.954 307.232V331.616H794.983V307.467C794.983 305.324 794.518 303.775 793.588 302.815C792.671 301.861 791.146 301.377 789.015 301.377C786.206 301.377 784.107 302.579 782.712 304.984V331.616H772.741V293.876H782.118Z" fill="white"/>
<path d="M855.444 318.365H834.416L829.689 331.616H822.843L842.037 280.808H847.823L867.017 331.616H860.223L855.444 318.365ZM836.405 312.85H853.481L844.93 289.093L836.405 312.85Z" fill="white"/>
<path d="M892.322 321.606C892.322 319.868 891.663 318.516 890.359 317.555C889.067 316.582 886.8 315.745 883.565 315.046C880.342 314.354 877.785 313.517 875.892 312.537C873.994 311.564 872.592 310.407 871.682 309.061C870.765 307.702 870.313 306.095 870.313 304.226C870.313 301.142 871.604 298.528 874.188 296.385C876.784 294.242 880.09 293.17 884.107 293.17C888.344 293.17 891.78 294.281 894.414 296.49C897.049 298.705 898.367 301.527 898.367 304.958H891.935C891.935 303.2 891.192 301.684 889.713 300.41C888.228 299.123 886.361 298.476 884.107 298.476C881.782 298.476 879.961 298.992 878.657 300.018C877.346 301.031 876.693 302.364 876.693 304.017C876.693 305.572 877.3 306.748 878.527 307.545C879.748 308.329 881.944 309.087 885.115 309.819C888.299 310.538 890.882 311.4 892.864 312.406C894.841 313.4 896.307 314.602 897.256 316.013C898.218 317.411 898.703 319.123 898.703 321.162C898.703 324.527 897.366 327.226 894.699 329.264C892.025 331.303 888.563 332.322 884.314 332.322C881.33 332.322 878.689 331.786 876.383 330.728C874.091 329.65 872.289 328.153 870.984 326.232C869.693 324.318 869.047 322.234 869.047 319.986H875.428C875.531 322.168 876.383 323.893 877.985 325.161C879.587 326.415 881.692 327.043 884.314 327.043C886.723 327.043 888.66 326.559 890.126 325.579C891.586 324.586 892.322 323.266 892.322 321.606Z" fill="white"/>
<path d="M926.546 321.606C926.546 319.868 925.887 318.516 924.582 317.555C923.291 316.582 921.024 315.745 917.789 315.046C914.566 314.354 912.008 313.517 910.116 312.537C908.218 311.564 906.816 310.407 905.906 309.061C904.988 307.702 904.536 306.095 904.536 304.226C904.536 301.142 905.828 298.528 908.411 296.385C911.007 294.242 914.314 293.17 918.331 293.17C922.568 293.17 926.003 294.281 928.638 296.49C931.273 298.705 932.591 301.527 932.591 304.958H926.158C926.158 303.2 925.416 301.684 923.937 300.41C922.451 299.123 920.585 298.476 918.331 298.476C916.006 298.476 914.185 298.992 912.88 300.018C911.569 301.031 910.917 302.364 910.917 304.017C910.917 305.572 911.524 306.748 912.751 307.545C913.972 308.329 916.168 309.087 919.338 309.819C922.522 310.538 925.106 311.4 927.088 312.406C929.064 313.4 930.53 314.602 931.48 316.013C932.442 317.411 932.926 319.123 932.926 321.162C932.926 324.527 931.59 327.226 928.922 329.264C926.249 331.303 922.787 332.322 918.538 332.322C915.554 332.322 912.913 331.786 910.607 330.728C908.314 329.65 906.513 328.153 905.208 326.232C903.916 324.318 903.271 322.234 903.271 319.986H909.651C909.755 322.168 910.607 323.893 912.209 325.161C913.81 326.415 915.916 327.043 918.538 327.043C920.947 327.043 922.884 326.559 924.35 325.579C925.81 324.586 926.546 323.266 926.546 321.606Z" fill="white"/>
<path d="M945.968 331.616H939.587V293.876H945.968V331.616ZM939.07 283.84C939.07 282.794 939.387 281.919 940.026 281.2C940.659 280.488 941.602 280.129 942.842 280.129C944.082 280.129 945.018 280.488 945.658 281.2C946.31 281.919 946.639 282.807 946.639 283.866C946.639 284.911 946.31 285.787 945.658 286.48C945.018 287.179 944.082 287.525 942.842 287.525C941.602 287.525 940.659 287.179 940.026 286.48C939.387 285.787 939.07 284.905 939.07 283.84Z" fill="white"/>
<path d="M975.717 321.606C975.717 319.868 975.059 318.516 973.754 317.555C972.463 316.582 970.196 315.745 966.96 315.046C963.738 314.354 961.18 313.517 959.288 312.537C957.389 311.564 955.988 310.407 955.077 309.061C954.16 307.702 953.708 306.095 953.708 304.226C953.708 301.142 955 298.528 957.583 296.385C960.179 294.242 963.486 293.17 967.503 293.17C971.739 293.17 975.175 294.281 977.81 296.49C980.445 298.705 981.762 301.527 981.762 304.958H975.33C975.33 303.2 974.587 301.684 973.108 300.41C971.623 299.123 969.757 298.476 967.503 298.476C965.178 298.476 963.357 298.992 962.052 300.018C960.741 301.031 960.089 302.364 960.089 304.017C960.089 305.572 960.696 306.748 961.923 307.545C963.143 308.329 965.339 309.087 968.51 309.819C971.694 310.538 974.277 311.4 976.26 312.406C978.236 313.4 979.702 314.602 980.651 316.013C981.614 317.411 982.098 319.123 982.098 321.162C982.098 324.527 980.761 327.226 978.094 329.264C975.42 331.303 971.959 332.322 967.709 332.322C964.726 332.322 962.084 331.786 959.779 330.728C957.486 329.65 955.684 328.153 954.38 326.232C953.088 324.318 952.442 322.234 952.442 319.986H958.823C958.926 322.168 959.779 323.893 961.38 325.161C962.982 326.415 965.087 327.043 967.709 327.043C970.118 327.043 972.056 326.559 973.522 325.579C974.981 324.586 975.717 323.266 975.717 321.606Z" fill="white"/>
<path d="M996.87 284.728V293.876H1003.85V298.842H996.87V322.259C996.87 323.775 997.18 324.919 997.8 325.683C998.42 326.434 999.479 326.807 1000.98 326.807C1001.71 326.807 1002.72 326.67 1004 326.389V331.616C1002.33 332.086 1000.7 332.322 999.118 332.322C996.257 332.322 994.106 331.453 992.66 329.708C991.213 327.95 990.49 325.467 990.49 322.259V298.842H983.696V293.876H990.49V284.728H996.87Z" fill="white"/>
<path d="M698.706 385.175L697.482 381.695H689.898L688.674 385.175H685.674L692.034 367.871H695.514L701.85 385.175H698.706ZM690.762 379.223H696.618L693.69 370.895L690.762 379.223ZM712.771 367.871C716.179 367.871 718.675 369.455 718.675 373.415C718.675 377.399 716.179 378.983 712.771 378.983H708.091V385.175H705.163V367.871H712.771ZM712.795 376.511C714.595 376.511 715.771 375.671 715.771 373.415C715.771 371.159 714.595 370.343 712.795 370.343H708.091V376.511H712.795ZM722.84 367.871H725.768V385.175H722.84V367.871ZM742.974 367.871H745.878V380.231C745.878 383.879 743.742 385.367 740.694 385.367C737.646 385.367 735.51 383.855 735.51 380.231H738.414C738.414 382.295 739.326 382.943 740.694 382.943C742.062 382.943 742.974 382.295 742.974 380.231V367.871ZM760.806 380.327C760.806 378.719 759.822 378.239 757.95 377.903L755.046 377.399C751.662 376.799 750.15 375.575 750.15 372.671C750.15 369.887 752.31 367.631 756.558 367.631C760.11 367.631 762.438 369.239 763.206 372.359L760.542 372.887C760.062 370.967 758.67 370.031 756.558 370.031C754.182 370.031 752.982 370.991 752.982 372.551C752.982 374.087 753.87 374.495 755.718 374.831L758.43 375.311C761.478 375.839 763.662 376.727 763.662 380.231C763.662 383.687 760.974 385.415 756.918 385.415C752.742 385.415 750.51 383.903 749.79 380.135L752.502 379.583C752.958 381.983 754.278 382.943 756.918 382.943C759.39 382.943 760.806 382.007 760.806 380.327ZM775.817 376.511C775.817 381.215 777.953 382.943 780.545 382.943C782.705 382.943 784.409 381.839 785.033 379.055L787.769 379.655C786.929 383.591 784.169 385.415 780.545 385.415C776.177 385.415 772.913 382.583 772.913 376.511C772.913 370.463 776.201 367.631 780.545 367.631C784.169 367.631 786.929 369.455 787.769 373.391L785.033 373.991C784.409 371.207 782.705 370.103 780.545 370.103C777.929 370.103 775.817 371.831 775.817 376.511ZM794.796 382.703H803.94V385.175H791.868V367.871H794.796V382.703ZM807.997 367.871H810.925V385.175H807.997V367.871ZM818.453 382.703H828.245V385.175H815.525V367.871H827.765V370.343H818.453V375.047H826.853V377.543H818.453V382.703ZM843.709 367.871H846.589V385.175H844.069L835.309 373.247V385.175H832.405V367.871H834.973L843.709 379.799V367.871ZM864.382 367.871V370.439H858.574V385.175H855.67V370.439H849.886V367.871H864.382Z" fill="#2DCCD3"/>
</g>
<path d="M20.2993 0.422902H1471.7C1482.68 0.422902 1491.58 9.32188 1491.58 20.2993V619.701C1491.58 630.678 1482.68 639.577 1471.7 639.577H20.2993C9.32184 639.577 0.422902 630.678 0.422902 619.701V20.2993C0.422902 9.32186 9.32188 0.422902 20.2993 0.422902Z" stroke="#312B55" stroke-width="0.845805"/>
<defs>
<radialGradient id="paint0_radial_1_34" cx="0" cy="0" r="1" gradientUnits="userSpaceOnUse" gradientTransform="translate(487.811 148.136) rotate(90) scale(440.923 433.811)">
<stop stop-color="#00FFD1"/>
<stop offset="1" stop-color="#D9D9D9" stop-opacity="0"/>
</radialGradient>
<radialGradient id="paint1_radial_1_34" cx="0" cy="0" r="1" gradientUnits="userSpaceOnUse" gradientTransform="translate(882.831 -29.0088) rotate(90) scale(579.277 570.226)">
<stop stop-color="#001AFF"/>
<stop offset="1" stop-color="#D9D9D9" stop-opacity="0"/>
</radialGradient>
<radialGradient id="paint2_radial_1_34" cx="0" cy="0" r="1" gradientUnits="userSpaceOnUse" gradientTransform="translate(836.282 444.886) rotate(90) scale(654.919 724.096)">
<stop stop-color="#00FFC2"/>
<stop offset="1" stop-color="#D9D9D9" stop-opacity="0"/>
</radialGradient>
<linearGradient id="paint3_linear_1_34" x1="103.188" y1="-82.8889" x2="103.188" y2="821.825" gradientUnits="userSpaceOnUse">
<stop stop-color="#2DCCD3"/>
<stop offset="1" stop-color="#17696D"/>
</linearGradient>
<clipPath id="clip0_1_34">
<path d="M0 20.2993C0 9.0883 9.08832 0 20.2993 0H1471.7C1482.91 0 1492 9.08832 1492 20.2993V619.701C1492 630.912 1482.91 640 1471.7 640H20.2993C9.08828 640 0 630.912 0 619.701V20.2993Z" fill="white"/>
</clipPath>
</defs>
</svg>
