<svg width="1764" height="756" viewBox="0 0 1764 756" fill="none" xmlns="http://www.w3.org/2000/svg">
<g clip-path="url(#clip0_1_34)">
<path d="M0 24C0 10.7452 10.7452 0 24 0H1740C1753.25 0 1764 10.7452 1764 24V732C1764 745.255 1753.25 756 1740 756H24C10.7451 756 0 745.255 0 732V24Z" fill="#080416"/>
<g opacity="0.2">
<ellipse cx="532.897" cy="250.322" rx="512.897" ry="521.306" fill="url(#paint0_radial_1_34)"/>
<ellipse cx="999.932" cy="40.8824" rx="674.181" ry="684.882" fill="url(#paint1_radial_1_34)"/>
<ellipse cx="944.897" cy="601.171" rx="856.103" ry="774.315" fill="url(#paint2_radial_1_34)"/>
</g>
<path d="M122 -98C-276.089 -98 -599 224.911 -599 623C-599 1021.09 -276.089 1344 122 1344C520.09 1344 843 1021.09 843 623C843 224.911 520.09 -98 122 -98ZM493.543 158.544C542.175 158.544 577.535 193.903 577.535 242.536C577.535 291.277 542.175 331.097 493.543 326.636C444.911 326.636 409.551 291.277 409.551 242.536C409.551 193.903 444.911 158.544 493.543 158.544ZM493.543 596.453C493.543 636.273 462.536 667.281 422.716 667.281C383.005 667.281 347.537 631.921 351.998 596.453C351.998 556.634 383.005 525.735 422.716 525.735C462.536 525.735 493.543 556.634 493.543 596.453ZM418.364 397.354C418.364 437.174 383.005 472.642 343.185 472.642C303.365 472.642 267.897 437.174 267.897 397.354C267.897 357.534 303.365 322.175 343.185 322.175C383.005 322.175 418.364 357.534 418.364 397.354ZM298.905 65.6312C343.185 65.6312 378.544 100.99 378.544 145.271C378.544 189.551 343.185 224.911 298.905 224.911C254.733 224.911 219.265 189.551 219.265 145.271C219.265 100.99 254.624 65.6312 298.905 65.6312ZM-422.095 415.088C-439.829 415.088 -457.455 397.463 -457.455 379.729C-457.455 361.995 -439.829 344.37 -422.095 344.37C-400.01 344.37 -386.736 361.995 -386.736 379.729C-386.736 397.463 -404.47 415.088 -422.095 415.088ZM-298.284 295.629C-320.37 295.629 -338.104 278.004 -338.104 255.918C-338.104 233.723 -320.37 216.098 -298.284 216.098C-276.089 216.098 -258.464 233.723 -258.464 255.918C-258.464 278.004 -276.089 295.629 -298.284 295.629ZM-209.832 450.447C-236.27 450.447 -258.464 428.362 -258.464 401.815C-258.464 375.268 -236.27 353.183 -209.832 353.183C-183.285 353.183 -161.091 375.268 -161.091 401.815C-161.091 428.362 -183.285 450.447 -209.832 450.447ZM-205.371 118.724C-205.371 92.1778 -187.637 74.4438 -161.091 74.4438C-134.544 74.4438 -116.919 92.1778 -116.919 118.724C-116.919 145.271 -134.544 163.005 -161.091 163.005C-187.637 163.005 -205.371 145.271 -205.371 118.724ZM-130.192 269.082C-130.192 238.184 -103.646 211.637 -72.6384 211.637C-41.74 211.637 -15.1935 238.184 -15.1935 269.082C-15.1935 300.089 -41.74 326.636 -72.6384 326.636C-103.646 326.636 -130.192 300.089 -130.192 269.082ZM7.00124 503.541C-32.8186 503.541 -59.3652 476.994 -59.3652 441.635C-59.3652 401.815 -32.8186 375.268 2.54056 375.268C37.8997 375.268 68.9069 401.815 68.9069 437.174C68.9069 476.994 42.3604 503.541 7.00124 503.541ZM11.3531 118.724C11.3531 83.3652 37.8997 56.8186 73.2588 56.8186C108.727 56.8186 135.273 83.3652 135.273 118.724C135.273 154.083 108.727 180.63 73.2588 180.63C37.8997 180.63 11.3531 154.083 11.3531 118.724ZM77.7195 295.629C77.7195 255.918 108.727 224.911 148.547 224.911C188.366 224.911 219.265 255.918 219.265 295.629C219.265 335.449 188.366 366.456 148.547 366.456C108.727 366.456 77.7195 335.449 77.7195 295.629ZM130.813 539.008C130.813 503.541 161.82 472.642 197.179 472.642C232.538 472.642 263.545 503.541 263.545 539.008C263.545 574.368 232.538 605.266 197.179 605.266C161.82 605.266 130.813 574.368 130.813 539.008ZM219.265 733.647C219.265 698.179 250.272 671.632 285.631 671.632C320.99 671.632 347.537 702.64 347.537 737.999C347.537 773.358 316.638 799.905 281.171 799.905C245.811 799.905 214.913 769.006 219.265 733.647ZM267.897 950.371C267.897 923.825 290.092 901.63 316.638 901.63C343.185 901.63 365.271 923.825 365.271 950.371C365.271 976.918 343.185 999.004 316.638 999.004C290.092 999.004 267.897 976.918 267.897 950.371ZM338.724 1202.45C320.99 1202.45 303.365 1184.83 303.365 1167.1C303.365 1149.36 320.99 1131.74 338.724 1131.74C360.81 1131.74 374.083 1145.01 374.083 1167.1C374.083 1184.83 356.458 1202.45 338.724 1202.45ZM462.644 1083.1C444.911 1083.1 427.177 1065.37 427.177 1047.64C422.825 1025.55 440.45 1007.82 462.644 1003.46C465.582 1000.42 468.52 1000.42 471.457 1003.46C493.543 1007.82 511.277 1025.55 506.816 1047.64C502.356 1069.72 484.73 1087.46 462.644 1083.1ZM449.262 870.732C418.364 870.732 396.169 844.185 396.169 813.178C396.169 782.279 422.716 760.193 453.723 760.193C480.27 760.193 506.816 782.279 506.816 817.638C506.816 848.646 480.27 870.732 449.262 870.732ZM493.543 441.635C493.543 397.463 528.902 361.995 573.183 361.995C617.463 361.995 652.822 397.463 652.822 441.635C652.822 485.915 617.463 521.275 573.183 521.275C528.902 521.275 493.543 485.915 493.543 441.635ZM599.729 950.371C573.183 950.371 555.449 932.637 555.449 906.091C555.449 879.544 573.183 861.919 599.729 861.919C621.815 861.919 643.901 879.544 643.901 906.091C643.901 932.637 626.276 950.371 599.729 950.371ZM599.729 729.186C564.37 729.186 537.823 702.64 537.823 667.281C537.823 631.921 564.37 605.375 599.729 605.375C635.088 605.375 661.635 631.921 661.635 667.281C661.635 702.64 635.088 729.186 599.729 729.186Z" fill="url(#paint3_linear_1_34)" fill-opacity="0.05"/>
<path d="M708.516 344C689.458 344 674 359.458 674 378.516C674 397.573 689.458 413.031 708.516 413.031C727.573 413.031 743.031 397.573 743.031 378.516C743.031 359.458 727.573 344 708.516 344ZM726.302 356.281C728.63 356.281 730.323 357.974 730.323 360.302C730.323 362.635 728.63 364.542 726.302 364.328C723.974 364.328 722.281 362.635 722.281 360.302C722.281 357.974 723.974 356.281 726.302 356.281ZM726.302 377.245C726.302 379.151 724.818 380.635 722.911 380.635C721.01 380.635 719.313 378.943 719.526 377.245C719.526 375.339 721.01 373.859 722.911 373.859C724.818 373.859 726.302 375.339 726.302 377.245ZM722.703 367.714C722.703 369.62 721.01 371.318 719.104 371.318C717.198 371.318 715.5 369.62 715.5 367.714C715.5 365.807 717.198 364.115 719.104 364.115C721.01 364.115 722.703 365.807 722.703 367.714ZM716.984 351.833C719.104 351.833 720.797 353.526 720.797 355.646C720.797 357.766 719.104 359.458 716.984 359.458C714.87 359.458 713.172 357.766 713.172 355.646C713.172 353.526 714.865 351.833 716.984 351.833ZM682.469 368.563C681.62 368.563 680.776 367.719 680.776 366.87C680.776 366.021 681.62 365.177 682.469 365.177C683.526 365.177 684.161 366.021 684.161 366.87C684.161 367.719 683.313 368.563 682.469 368.563ZM688.396 362.844C687.339 362.844 686.49 362 686.49 360.943C686.49 359.88 687.339 359.036 688.396 359.036C689.458 359.036 690.302 359.88 690.302 360.943C690.302 362 689.458 362.844 688.396 362.844ZM692.63 370.255C691.365 370.255 690.302 369.198 690.302 367.927C690.302 366.656 691.365 365.599 692.63 365.599C693.901 365.599 694.964 366.656 694.964 367.927C694.964 369.198 693.901 370.255 692.63 370.255ZM692.844 354.375C692.844 353.104 693.693 352.255 694.964 352.255C696.234 352.255 697.078 353.104 697.078 354.375C697.078 355.646 696.234 356.495 694.964 356.495C693.693 356.495 692.844 355.646 692.844 354.375ZM696.443 361.573C696.443 360.094 697.714 358.823 699.198 358.823C700.677 358.823 701.948 360.094 701.948 361.573C701.948 363.057 700.677 364.328 699.198 364.328C697.714 364.328 696.443 363.057 696.443 361.573ZM703.01 372.797C701.104 372.797 699.833 371.526 699.833 369.833C699.833 367.927 701.104 366.656 702.797 366.656C704.49 366.656 705.974 367.927 705.974 369.62C705.974 371.526 704.703 372.797 703.01 372.797ZM703.219 354.375C703.219 352.682 704.49 351.411 706.182 351.411C707.88 351.411 709.151 352.682 709.151 354.375C709.151 356.068 707.88 357.339 706.182 357.339C704.49 357.339 703.219 356.068 703.219 354.375ZM706.396 362.844C706.396 360.943 707.88 359.458 709.786 359.458C711.693 359.458 713.172 360.943 713.172 362.844C713.172 364.75 711.693 366.234 709.786 366.234C707.88 366.234 706.396 364.75 706.396 362.844ZM708.938 374.495C708.938 372.797 710.422 371.318 712.115 371.318C713.807 371.318 715.292 372.797 715.292 374.495C715.292 376.188 713.807 377.667 712.115 377.667C710.422 377.667 708.938 376.188 708.938 374.495ZM713.172 383.813C713.172 382.115 714.656 380.844 716.349 380.844C718.042 380.844 719.313 382.328 719.313 384.021C719.313 385.714 717.833 386.984 716.135 386.984C714.443 386.984 712.964 385.505 713.172 383.813ZM715.5 394.188C715.5 392.917 716.563 391.854 717.833 391.854C719.104 391.854 720.161 392.917 720.161 394.188C720.161 395.458 719.104 396.516 717.833 396.516C716.563 396.516 715.5 395.458 715.5 394.188ZM718.891 406.255C718.042 406.255 717.198 405.411 717.198 404.563C717.198 403.714 718.042 402.87 718.891 402.87C719.948 402.87 720.583 403.505 720.583 404.563C720.583 405.411 719.74 406.255 718.891 406.255ZM724.823 400.542C723.974 400.542 723.125 399.693 723.125 398.844C722.917 397.786 723.76 396.938 724.823 396.729C724.964 396.583 725.104 396.583 725.245 396.729C726.302 396.938 727.151 397.786 726.938 398.844C726.724 399.901 725.88 400.75 724.823 400.542ZM724.182 390.375C722.703 390.375 721.641 389.104 721.641 387.62C721.641 386.141 722.911 385.083 724.396 385.083C725.667 385.083 726.938 386.141 726.938 387.833C726.938 389.318 725.667 390.375 724.182 390.375ZM726.302 369.833C726.302 367.719 727.995 366.021 730.115 366.021C732.234 366.021 733.927 367.719 733.927 369.833C733.927 371.953 732.234 373.646 730.115 373.646C727.995 373.646 726.302 371.953 726.302 369.833ZM731.385 394.188C730.115 394.188 729.266 393.339 729.266 392.068C729.266 390.797 730.115 389.953 731.385 389.953C732.443 389.953 733.5 390.797 733.5 392.068C733.5 393.339 732.656 394.188 731.385 394.188ZM731.385 383.599C729.693 383.599 728.422 382.328 728.422 380.635C728.422 378.943 729.693 377.672 731.385 377.672C733.078 377.672 734.349 378.943 734.349 380.635C734.349 382.328 733.078 383.599 731.385 383.599Z" fill="#2DCCD3"/>
<path d="M770.211 391.231H787.92V397.939H761.878V357.439H770.211V391.231Z" fill="white"/>
<path d="M798.89 397.94H790.827V367.856H798.89V397.94ZM790.369 360.065C790.369 358.856 790.77 357.867 791.577 357.086C792.38 356.31 793.479 355.919 794.869 355.919C796.244 355.919 797.333 356.31 798.14 357.086C798.958 357.867 799.369 358.856 799.369 360.065C799.369 361.289 798.952 362.289 798.119 363.065C797.296 363.846 796.208 364.231 794.848 364.231C793.499 364.231 792.416 363.846 791.598 363.065C790.775 362.289 790.369 361.289 790.369 360.065Z" fill="white"/>
<path d="M821.183 397.94C820.819 397.221 820.548 396.325 820.371 395.252C818.423 397.419 815.897 398.502 812.787 398.502C809.839 398.502 807.397 397.648 805.454 395.94C803.522 394.231 802.558 392.08 802.558 389.481C802.558 386.304 803.735 383.856 806.1 382.148C808.459 380.44 811.876 379.58 816.35 379.565H820.037V377.836C820.037 376.45 819.683 375.336 818.975 374.502C818.266 373.669 817.141 373.252 815.6 373.252C814.235 373.252 813.173 373.58 812.412 374.231C811.647 374.872 811.266 375.752 811.266 376.877H803.225C803.225 375.143 803.756 373.534 804.829 372.044C805.912 370.56 807.433 369.398 809.391 368.565C811.36 367.721 813.569 367.294 816.016 367.294C819.725 367.294 822.667 368.226 824.85 370.086C827.027 371.95 828.121 374.565 828.121 377.94V390.981C828.131 393.846 828.527 396.002 829.308 397.461V397.94H821.183ZM814.537 392.356C815.73 392.356 816.829 392.096 817.829 391.565C818.829 391.039 819.563 390.33 820.037 389.44V384.252H817.037C813.022 384.252 810.881 385.643 810.621 388.419L810.6 388.898C810.6 389.898 810.944 390.726 811.641 391.377C812.35 392.034 813.313 392.356 814.537 392.356Z" fill="white"/>
<path d="M840.993 397.94H832.931V367.856H840.993V397.94ZM832.472 360.065C832.472 358.856 832.873 357.867 833.681 357.086C834.483 356.31 835.582 355.919 836.972 355.919C838.347 355.919 839.436 356.31 840.243 357.086C841.061 357.867 841.472 358.856 841.472 360.065C841.472 361.289 841.056 362.289 840.222 363.065C839.399 363.846 838.311 364.231 836.951 364.231C835.602 364.231 834.519 363.846 833.701 363.065C832.878 362.289 832.472 361.289 832.472 360.065Z" fill="white"/>
<path d="M862.14 389.627C862.14 388.643 861.651 387.872 860.682 387.315C859.708 386.747 858.145 386.242 855.994 385.794C848.838 384.284 845.265 381.242 845.265 376.669C845.265 374.002 846.369 371.773 848.578 369.981C850.796 368.19 853.703 367.294 857.286 367.294C861.104 367.294 864.161 368.2 866.453 370.002C868.744 371.794 869.89 374.127 869.89 377.002H861.848C861.848 375.851 861.473 374.898 860.723 374.148C859.984 373.398 858.833 373.023 857.265 373.023C855.901 373.023 854.848 373.33 854.098 373.94C853.359 374.554 852.994 375.33 852.994 376.273C852.994 377.164 853.416 377.888 854.265 378.44C855.109 378.981 856.536 379.455 858.536 379.856C860.536 380.247 862.223 380.69 863.598 381.19C867.848 382.747 869.973 385.45 869.973 389.294C869.973 392.034 868.791 394.252 866.432 395.961C864.083 397.659 861.041 398.502 857.307 398.502C854.791 398.502 852.557 398.049 850.598 397.148C848.64 396.247 847.104 395.018 845.994 393.461C844.88 391.893 844.328 390.2 844.328 388.377H851.953C852.02 389.81 852.541 390.909 853.515 391.669C854.5 392.419 855.817 392.794 857.473 392.794C859.015 392.794 860.171 392.502 860.953 391.919C861.744 391.336 862.14 390.575 862.14 389.627Z" fill="white"/>
<path d="M872.116 382.606C872.116 379.638 872.689 376.981 873.845 374.648C874.996 372.304 876.647 370.492 878.803 369.211C880.97 367.935 883.475 367.294 886.324 367.294C890.392 367.294 893.704 368.539 896.262 371.023C898.829 373.513 900.267 376.888 900.574 381.148L900.616 383.19C900.616 387.815 899.324 391.523 896.741 394.315C894.168 397.106 890.72 398.502 886.387 398.502C882.053 398.502 878.584 397.117 875.991 394.336C873.407 391.544 872.116 387.763 872.116 382.981V382.606ZM880.157 383.19C880.157 386.054 880.689 388.242 881.762 389.752C882.845 391.268 884.387 392.023 886.387 392.023C888.329 392.023 889.85 391.284 890.949 389.794C892.043 388.294 892.595 385.898 892.595 382.606C892.595 379.815 892.043 377.648 890.949 376.106C889.85 374.565 888.308 373.794 886.324 373.794C884.366 373.794 882.845 374.565 881.762 376.106C880.689 377.638 880.157 379.997 880.157 383.19Z" fill="white"/>
<path d="M911.199 367.856L911.449 371.315C913.6 368.638 916.48 367.294 920.095 367.294C923.287 367.294 925.662 368.231 927.22 370.106C928.772 371.981 929.574 374.784 929.615 378.502V397.94H921.574V378.69C921.574 376.981 921.199 375.747 920.449 374.981C919.709 374.221 918.48 373.836 916.761 373.836C914.496 373.836 912.803 374.794 911.678 376.711V397.94H903.636V367.856H911.199Z" fill="white"/>
<path d="M970.334 387.377H953.376L949.563 397.939H944.042L959.522 357.439H964.188L979.667 397.939H974.188L970.334 387.377ZM954.98 382.981H968.751L961.855 364.044L954.98 382.981Z" fill="white"/>
<path d="M1000.08 389.961C1000.08 388.575 999.544 387.497 998.492 386.731C997.451 385.955 995.622 385.289 993.013 384.731C990.414 384.179 988.352 383.513 986.826 382.731C985.294 381.955 984.164 381.034 983.43 379.961C982.69 378.877 982.326 377.596 982.326 376.106C982.326 373.648 983.367 371.565 985.451 369.856C987.544 368.148 990.211 367.294 993.451 367.294C996.867 367.294 999.638 368.179 1001.76 369.94C1003.89 371.705 1004.95 373.955 1004.95 376.69H999.763C999.763 375.289 999.164 374.08 997.971 373.065C996.773 372.039 995.268 371.523 993.451 371.523C991.576 371.523 990.107 371.935 989.055 372.752C987.997 373.56 987.471 374.622 987.471 375.94C987.471 377.179 987.961 378.117 988.951 378.752C989.935 379.377 991.706 379.981 994.263 380.565C996.831 381.138 998.914 381.825 1000.51 382.627C1002.11 383.419 1003.29 384.377 1004.05 385.502C1004.83 386.617 1005.22 387.981 1005.22 389.606C1005.22 392.289 1004.14 394.44 1001.99 396.065C999.836 397.69 997.044 398.502 993.617 398.502C991.211 398.502 989.081 398.075 987.221 397.231C985.372 396.372 983.919 395.179 982.867 393.648C981.826 392.122 981.305 390.461 981.305 388.669H986.451C986.534 390.409 987.221 391.784 988.513 392.794C989.805 393.794 991.503 394.294 993.617 394.294C995.56 394.294 997.122 393.909 998.305 393.127C999.482 392.336 1000.08 391.284 1000.08 389.961Z" fill="white"/>
<path d="M1027.68 389.961C1027.68 388.575 1027.14 387.497 1026.09 386.731C1025.05 385.955 1023.22 385.289 1020.61 384.731C1018.01 384.179 1015.95 383.513 1014.43 382.731C1012.89 381.955 1011.76 381.034 1011.03 379.961C1010.29 378.877 1009.93 377.596 1009.93 376.106C1009.93 373.648 1010.97 371.565 1013.05 369.856C1015.14 368.148 1017.81 367.294 1021.05 367.294C1024.47 367.294 1027.24 368.179 1029.36 369.94C1031.49 371.705 1032.55 373.955 1032.55 376.69H1027.36C1027.36 375.289 1026.76 374.08 1025.57 373.065C1024.37 372.039 1022.87 371.523 1021.05 371.523C1019.18 371.523 1017.71 371.935 1016.66 372.752C1015.6 373.56 1015.07 374.622 1015.07 375.94C1015.07 377.179 1015.56 378.117 1016.55 378.752C1017.54 379.377 1019.31 379.981 1021.86 380.565C1024.43 381.138 1026.51 381.825 1028.11 382.627C1029.71 383.419 1030.89 384.377 1031.66 385.502C1032.43 386.617 1032.82 387.981 1032.82 389.606C1032.82 392.289 1031.74 394.44 1029.59 396.065C1027.44 397.69 1024.64 398.502 1021.22 398.502C1018.81 398.502 1016.68 398.075 1014.82 397.231C1012.97 396.372 1011.52 395.179 1010.47 393.648C1009.43 392.122 1008.91 390.461 1008.91 388.669H1014.05C1014.13 390.409 1014.82 391.784 1016.11 392.794C1017.41 393.794 1019.1 394.294 1021.22 394.294C1023.16 394.294 1024.72 393.909 1025.91 393.127C1027.08 392.336 1027.68 391.284 1027.68 389.961Z" fill="white"/>
<path d="M1043.34 397.94H1038.19V367.856H1043.34V397.94ZM1037.78 359.856C1037.78 359.023 1038.03 358.325 1038.55 357.752C1039.06 357.184 1039.82 356.898 1040.82 356.898C1041.82 356.898 1042.57 357.184 1043.09 357.752C1043.62 358.325 1043.88 359.033 1043.88 359.877C1043.88 360.71 1043.62 361.408 1043.09 361.96C1042.57 362.518 1041.82 362.794 1040.82 362.794C1039.82 362.794 1039.06 362.518 1038.55 361.96C1038.03 361.408 1037.78 360.705 1037.78 359.856Z" fill="white"/>
<path d="M1067.33 389.961C1067.33 388.575 1066.8 387.497 1065.75 386.731C1064.71 385.955 1062.88 385.289 1060.27 384.731C1057.67 384.179 1055.61 383.513 1054.08 382.731C1052.55 381.955 1051.42 381.034 1050.69 379.961C1049.95 378.877 1049.58 377.596 1049.58 376.106C1049.58 373.648 1050.62 371.565 1052.71 369.856C1054.8 368.148 1057.47 367.294 1060.71 367.294C1064.12 367.294 1066.89 368.179 1069.02 369.94C1071.14 371.705 1072.21 373.955 1072.21 376.69H1067.02C1067.02 375.289 1066.42 374.08 1065.23 373.065C1064.03 372.039 1062.52 371.523 1060.71 371.523C1058.83 371.523 1057.36 371.935 1056.31 372.752C1055.25 373.56 1054.73 374.622 1054.73 375.94C1054.73 377.179 1055.22 378.117 1056.21 378.752C1057.19 379.377 1058.96 379.981 1061.52 380.565C1064.09 381.138 1066.17 381.825 1067.77 382.627C1069.36 383.419 1070.55 384.377 1071.31 385.502C1072.09 386.617 1072.48 387.981 1072.48 389.606C1072.48 392.289 1071.4 394.44 1069.25 396.065C1067.09 397.69 1064.3 398.502 1060.87 398.502C1058.47 398.502 1056.34 398.075 1054.48 397.231C1052.63 396.372 1051.18 395.179 1050.12 393.648C1049.08 392.122 1048.56 390.461 1048.56 388.669H1053.71C1053.79 390.409 1054.48 391.784 1055.77 392.794C1057.06 393.794 1058.76 394.294 1060.87 394.294C1062.82 394.294 1064.38 393.909 1065.56 393.127C1066.74 392.336 1067.33 391.284 1067.33 389.961Z" fill="white"/>
<path d="M1084.39 360.564V367.856H1090.02V371.814H1084.39V390.481C1084.39 391.689 1084.64 392.601 1085.14 393.21C1085.64 393.809 1086.5 394.106 1087.7 394.106C1088.3 394.106 1089.11 393.997 1090.14 393.773V397.939C1088.79 398.314 1087.48 398.502 1086.2 398.502C1083.9 398.502 1082.16 397.809 1081 396.419C1079.83 395.018 1079.25 393.038 1079.25 390.481V371.814H1073.77V367.856H1079.25V360.564H1084.39Z" fill="white"/>
<path d="M853.997 445L853.079 442.39H847.391L846.473 445H844.223L848.993 432.022H851.603L856.355 445H853.997ZM848.039 440.536H852.431L850.235 434.29L848.039 440.536ZM865.085 432.022C867.641 432.022 869.513 433.21 869.513 436.18C869.513 439.168 867.641 440.356 865.085 440.356H861.575V445H859.379V432.022H865.085ZM865.103 438.502C866.453 438.502 867.335 437.872 867.335 436.18C867.335 434.488 866.453 433.876 865.103 433.876H861.575V438.502H865.103ZM873.177 432.022H875.373V445H873.177V432.022ZM889.358 432.022H891.536V441.292C891.536 444.028 889.934 445.144 887.648 445.144C885.362 445.144 883.76 444.01 883.76 441.292H885.938C885.938 442.84 886.622 443.326 887.648 443.326C888.674 443.326 889.358 442.84 889.358 441.292V432.022ZM903.272 441.364C903.272 440.158 902.534 439.798 901.13 439.546L898.952 439.168C896.414 438.718 895.28 437.8 895.28 435.622C895.28 433.534 896.9 431.842 900.086 431.842C902.75 431.842 904.496 433.048 905.072 435.388L903.074 435.784C902.714 434.344 901.67 433.642 900.086 433.642C898.304 433.642 897.404 434.362 897.404 435.532C897.404 436.684 898.07 436.99 899.456 437.242L901.49 437.602C903.776 437.998 905.414 438.664 905.414 441.292C905.414 443.884 903.398 445.18 900.356 445.18C897.224 445.18 895.55 444.046 895.01 441.22L897.044 440.806C897.386 442.606 898.376 443.326 900.356 443.326C902.21 443.326 903.272 442.624 903.272 441.364ZM915.61 438.502C915.61 442.03 917.212 443.326 919.156 443.326C920.776 443.326 922.054 442.498 922.522 440.41L924.574 440.86C923.944 443.812 921.874 445.18 919.156 445.18C915.88 445.18 913.432 443.056 913.432 438.502C913.432 433.966 915.898 431.842 919.156 431.842C921.874 431.842 923.944 433.21 924.574 436.162L922.522 436.612C922.054 434.524 920.776 433.696 919.156 433.696C917.194 433.696 915.61 434.992 915.61 438.502ZM930.384 443.146H937.242V445H928.188V432.022H930.384V443.146ZM940.825 432.022H943.021V445H940.825V432.022ZM949.207 443.146H956.551V445H947.011V432.022H956.191V433.876H949.207V437.404H955.507V439.276H949.207V443.146ZM968.689 432.022H970.849V445H968.959L962.389 436.054V445H960.211V432.022H962.137L968.689 440.968V432.022ZM984.734 432.022V433.948H980.378V445H978.2V433.948H973.862V432.022H984.734Z" fill="#2DCCD3"/>
</g>
<defs>
<radialGradient id="paint0_radial_1_34" cx="0" cy="0" r="1" gradientUnits="userSpaceOnUse" gradientTransform="translate(532.897 250.322) rotate(90) scale(521.306 512.897)">
<stop stop-color="#00FFD1"/>
<stop offset="1" stop-color="#D9D9D9" stop-opacity="0"/>
</radialGradient>
<radialGradient id="paint1_radial_1_34" cx="0" cy="0" r="1" gradientUnits="userSpaceOnUse" gradientTransform="translate(999.932 40.8824) rotate(90) scale(684.882 674.181)">
<stop stop-color="#001AFF"/>
<stop offset="1" stop-color="#D9D9D9" stop-opacity="0"/>
</radialGradient>
<radialGradient id="paint2_radial_1_34" cx="0" cy="0" r="1" gradientUnits="userSpaceOnUse" gradientTransform="translate(944.897 601.171) rotate(90) scale(774.315 856.103)">
<stop stop-color="#00FFC2"/>
<stop offset="1" stop-color="#D9D9D9" stop-opacity="0"/>
</radialGradient>
<linearGradient id="paint3_linear_1_34" x1="122" y1="-98" x2="122" y2="971.648" gradientUnits="userSpaceOnUse">
<stop stop-color="#2DCCD3"/>
<stop offset="1" stop-color="#17696D"/>
</linearGradient>
<clipPath id="clip0_1_34">
<path d="M0 24C0 10.7452 10.7452 0 24 0H1740C1753.25 0 1764 10.7452 1764 24V732C1764 745.255 1753.25 756 1740 756H24C10.7451 756 0 745.255 0 732V24Z" fill="white"/>
</clipPath>
</defs>
</svg>
