<svg xmlns="http://www.w3.org/2000/svg" fill="none" viewBox="0 0 160 88">
  <g clip-path="url(#a)">
    <path fill="#FF3B5A" d="M18.039 9.014c.512-.386 13.362-10.009 29.101-7.945C63.198 3.17 73.865 12.003 82.6 22.889c9.188 11.494 14.782 24.867 7.642 39.138-5.623 11.242-10.686 13.73-29.073 21.396C30.126 96.353 10.05 75.94 4.32 63.28-.79 52-6.009 28.674 18.03 9.024h.02l-.01-.01ZM49.363 3.47C36.02 1.715 24.86 8.86 22.368 10.605l-.28.202a2.766 2.766 0 0 0-.233.174C-.83 29.523 4.116 51.565 8.938 62.229c5.4 11.966 24.347 31.231 53.652 19.043 17.381-7.24 20.947-8.63 26.705-19.361 7.324-13.692 1.614-27.557-6.88-37.662-8.502-10.076-17.883-18.793-33.052-20.78Z"/>
    <path fill="#fff" d="M31.468 37.17a2.823 2.823 0 0 0 2.822-2.826 2.823 2.823 0 0 0-2.822-2.825 2.823 2.823 0 0 0-2.82 2.825 2.823 2.823 0 0 0 2.82 2.825Zm53.179-2.826a2.823 2.823 0 0 1-2.821 2.825 2.823 2.823 0 0 1-2.821-2.825 2.823 2.823 0 0 1 2.821-2.825 2.823 2.823 0 0 1 2.821 2.825Zm-8.038-2.42a11.94 11.94 0 0 0-2.735-.27c-5.671 0-8.444 2.507-8.444 7.887v.492h-2.87v4.252h2.87v18.687h5.15V44.285h5.285v-4.252H70.58v-.27c0-2.4.87-3.741 3.942-3.741.744 0 1.44.087 2.087.222v-4.32Zm-25.141 7.955c5.083 0 8.107 2.777 8.107 8.533v14.56h-5.15V49.145c0-3.471-1.565-4.908-4.59-4.908-2.222 0-4.212 1.167-5.15 3.114v15.592h-5.149v-22.92h4.976v3.471c1.565-2.13 3.942-3.625 6.966-3.625l-.01.01Zm-17.227.154h-5.15v22.939h5.15V40.033Zm50.069 0h-5.15v22.939h5.15V40.033Zm25.352 8.379c0-5.756-3.044-8.533-8.107-8.533l.01-.01c-3.024 0-5.4 1.495-6.966 3.626v-3.472h-4.976v22.92h5.15V47.35c.937-1.947 2.927-3.114 5.15-3.114 3.024 0 4.589 1.437 4.589 4.908v13.827h5.15v-14.56Zm10.261-8.379h-5.15v22.939h5.15V40.033Zm10.686 0v-8.36h-5.15v8.36h-2.87v4.252h2.87v11.07c0 4.927 2.599 7.617 7.884 7.617 1.005 0 1.884-.048 2.821-.27v-4.32l-.177.021c-.663.08-1.265.151-1.948.133-2.31 0-3.43-.896-3.43-3.587V44.285h4.927v-4.252h-4.927Zm11.584 0 6.319 17.52 6.29-17.52H160l-9.073 22.939-3.294 8.446h-5.285l3.468-8.446h-.038l-9.092-22.939h5.507Zm-22.048-5.689a2.823 2.823 0 0 1-2.821 2.825 2.823 2.823 0 0 1-2.822-2.825 2.823 2.823 0 0 1 2.822-2.825 2.823 2.823 0 0 1 2.821 2.825Z"/>
  </g>
  <defs>
    <clipPath id="a">
      <path fill="#fff" d="M0 0h160v86.78H0z" transform="translate(0 .78)"/>
    </clipPath>
  </defs>
</svg>
