<svg xmlns="http://www.w3.org/2000/svg" fill="none" viewBox="0 0 160 87">
  <g clip-path="url(#a)">
    <path fill="#FF3B5A" d="M18.039 8.234C18.551 7.85 31.401-1.774 47.14.29 63.198 2.391 73.865 11.224 82.6 22.11c9.188 11.494 14.782 24.868 7.642 39.138-5.623 11.243-10.686 13.73-29.073 21.396-31.043 12.93-51.12-7.482-56.85-20.142C-.79 51.219-6.009 27.895 18.03 8.244h.02l-.01-.01ZM49.363 2.69C36.02.935 24.86 8.08 22.368 9.825l-.28.203c-.155.106-.233.173-.233.173C-.83 28.744 4.116 50.785 8.938 61.45c5.4 11.966 24.347 31.23 53.652 19.043 17.381-7.241 20.947-8.63 26.705-19.361 7.324-13.692 1.614-27.558-6.88-37.663C73.914 13.393 64.533 4.677 49.364 2.69Z"/>
    <path fill="#2F1A75" d="M31.468 36.39a2.823 2.823 0 0 0 2.822-2.826 2.823 2.823 0 0 0-2.822-2.825 2.823 2.823 0 0 0-2.82 2.825 2.823 2.823 0 0 0 2.82 2.826Zm53.179-2.826a2.823 2.823 0 0 1-2.821 2.826 2.823 2.823 0 0 1-2.821-2.826 2.823 2.823 0 0 1 2.821-2.825 2.823 2.823 0 0 1 2.821 2.825Zm-8.038-2.42a11.946 11.946 0 0 0-2.735-.27c-5.671 0-8.444 2.507-8.444 7.888v.491h-2.87v4.252h2.87v18.687h5.15V43.505h5.285v-4.252H70.58v-.27c0-2.4.87-3.74 3.942-3.74.744 0 1.44.086 2.087.22v-4.319Zm-25.141 7.955c5.083 0 8.107 2.777 8.107 8.533v14.56h-5.15V48.365c0-3.471-1.565-4.908-4.59-4.908-2.222 0-4.212 1.167-5.15 3.115v15.591h-5.149v-22.92h4.976v3.472c1.565-2.131 3.942-3.626 6.966-3.626l-.01.01Zm-17.227.154h-5.15v22.94h5.15v-22.94Zm50.069 0h-5.15v22.94h5.15v-22.94Zm25.352 8.379c0-5.756-3.044-8.533-8.107-8.533l.01-.01c-3.024 0-5.4 1.495-6.966 3.626v-3.471h-4.976v22.92h5.15V46.571c.937-1.948 2.927-3.115 5.15-3.115 3.024 0 4.589 1.437 4.589 4.908v13.827h5.15v-14.56Zm10.261-8.379h-5.15v22.94h5.15v-22.94Zm10.686 0v-8.36h-5.15v8.36h-2.87v4.252h2.87v11.07c0 4.927 2.599 7.617 7.884 7.617 1.005 0 1.884-.048 2.821-.27v-4.32l-.177.021c-.663.08-1.265.151-1.948.134-2.31 0-3.43-.897-3.43-3.587V43.505h4.927v-4.252h-4.927Zm11.584 0 6.319 17.52 6.29-17.52H160l-9.073 22.94-3.294 8.446h-5.285l3.468-8.447h-.038l-9.092-22.939h5.507Zm-22.048-5.689a2.823 2.823 0 0 1-2.821 2.826 2.823 2.823 0 0 1-2.822-2.826 2.823 2.823 0 0 1 2.822-2.825 2.823 2.823 0 0 1 2.821 2.825Z"/>
  </g>
  <defs>
    <clipPath id="a">
      <path fill="#fff" d="M0 0h160v86.78H0z"/>
    </clipPath>
  </defs>
</svg>
